<?xml version="1.0" standalone="no"?>
<!DOCTYPE svg PUBLIC "-//W3C//DTD SVG 20010904//EN"
 "http://www.w3.org/TR/2001/REC-SVG-20010904/DTD/svg10.dtd">
<svg version="1.0" xmlns="http://www.w3.org/2000/svg"
 width="1080.000000pt" height="1244.000000pt" viewBox="0 0 1080.000000 1244.000000"
 preserveAspectRatio="xMidYMid meet">

<g transform="translate(0.000000,1244.000000) scale(0.100000,-0.100000)"
fill="#000000" stroke="none">
<path d="M4295 11420 c-81 -18 -192 -79 -246 -137 -42 -44 -98 -155 -105 -207
-4 -25 -11 -49 -15 -52 -5 -3 -9 -232 -9 -509 l0 -505 -637 -3 c-629 -3 -672
-5 -742 -29 -144 -50 -291 -224 -291 -344 0 -18 -4 -36 -10 -39 -12 -8 -13
-102 -1 -109 4 -3 11 -30 14 -61 4 -42 16 -72 48 -123 42 -66 123 -152 145
-152 6 0 17 -6 23 -14 7 -8 33 -22 59 -31 41 -14 129 -15 720 -15 l672 0 0
-2960 0 -2960 -642 -3 c-362 -2 -665 -8 -693 -13 -80 -16 -141 -49 -206 -111
-70 -66 -115 -127 -125 -169 -4 -16 -12 -32 -18 -36 -13 -9 -14 -238 0 -269
43 -97 72 -144 120 -193 30 -31 59 -56 64 -56 5 0 15 -6 22 -13 30 -27 86 -49
136 -54 29 -3 55 -10 58 -14 3 -5 293 -9 645 -9 l639 0 0 -264 c0 -146 4 -267
9 -270 4 -3 11 -25 14 -50 17 -120 118 -241 257 -309 83 -41 87 -42 191 -42
60 0 116 5 130 11 13 7 40 18 59 25 48 18 130 71 162 105 50 54 108 181 113
246 0 3 3 10 8 14 4 4 7 126 7 271 l0 263 333 0 c699 0 1182 40 1567 130 47
11 114 27 150 35 247 55 690 219 910 337 456 244 759 477 1071 824 127 141
312 402 409 576 66 117 185 367 209 438 13 36 31 85 41 110 54 128 139 466
170 670 11 74 23 141 25 148 3 8 12 98 20 200 19 222 21 590 6 792 -19 237
-77 591 -127 770 -61 215 -56 200 -118 365 -311 827 -906 1484 -1704 1884
-318 159 -617 267 -982 354 -287 69 -384 84 -785 122 -234 22 -307 25 -727 25
l-468 0 0 504 c0 326 -4 507 -10 511 -5 3 -10 21 -10 40 0 39 -67 175 -108
218 -32 35 -113 88 -176 117 -53 23 -204 35 -271 20z m1277 -2360 c315 -14
658 -56 848 -105 158 -41 380 -109 435 -135 11 -5 65 -28 120 -50 465 -193
870 -534 1133 -953 177 -282 295 -579 367 -927 93 -453 93 -1100 -1 -1540 -44
-206 -114 -431 -182 -585 -366 -824 -1049 -1324 -2067 -1516 -268 -50 -415
-61 -897 -66 l-458 -5 0 2939 c0 1617 3 2943 7 2946 10 10 411 8 695 -3z"/>
</g>
</svg>
